# xmcd
#
# Track frame offsets: 
#        150
#        17909
#        34968
#        50874
#        61668
#        78834
#        94004
#        112088
#        128623
#        141995
#
# Disc length: 2115 seconds
#
# Revision: 0
# Processed by: cddbd v1.5.2PL0 Copyright (c) Steve Scherf et al.
# Submitted via: ExactAudioCopy v0.90b4
#
DISCID=8608410a
DTITLE=Johnny Reid - What Love Is All About
DYEAR=2015
DGENRE=Country
TTITLE0=What Love Is All About
TTITLE1=Honey Honey
TTITLE2=A Picture of You
TTITLE3=When the Sun Goes Down
TTITLE4=Is It Lonely Where Your Heart Is
TTITLE5=Out of the Rain
TTITLE6=What I'm Feelin' Right Now (feat. Kardinal Offishall)
TTITLE7=The Rest of My Life
TTITLE8=My Heart Beats Like a Drum
TTITLE9=I Feel Like Going Home
EXTD=
EXTT0=
EXTT1=
EXTT2=
EXTT3=
EXTT4=
EXTT5=
EXTT6=
EXTT7=
EXTT8=
EXTT9=
PLAYORDER=
